<svg viewBox="0 0 151.05858048000002 56.64696768" height="56.64696768" width="151.05858048000002">
    <g>
        <svg xmlns="http://www.w3.org/2000/svg"
            xmlns:xlink="http://www.w3.org/1999/xlink" version="1.1" x="0" y="0" viewBox="10 35 80 30" style="enable-background: new 0 0 100 100" xml:space="preserve" height="56.64696768" width="151.05858048000002" class="icon-icon-0" data-fill-palette-color="accent" id="icon-0">
            <g fill="#1c4b82" data-fill-palette-color="accent">
                <path d="M84 35H16c-3.309 0-6 2.691-6 6v18c0 3.309 2.691 6 6 6h3 64 1c3.309 0 6-2.691 6-6V41C90 37.691 87.309 35 84 35zM82 63H20v-3h62V63zM88 59c0 2.206-1.794 4-4 4v-4c0-0.552-0.448-1-1-1H19c-0.552 0-1 0.448-1 1v4h-2c-2.206 0-4-1.794-4-4V41c0-2.206 1.794-4 4-4h68c2.206 0 4 1.794 4 4V59z" fill="#000000" data-fill-palette-color="accent"></path>
                <path d="M83 50H19c-0.552 0-1 0.448-1 1v5c0 0.552 0.448 1 1 1h64c0.552 0 1-0.448 1-1v-5C84 50.448 83.552 50 83 50zM82 55H20v-3h62V55z" fill="#000000" data-fill-palette-color="accent"></path>
                <path d="M21 45c1.654 0 3-1.346 3-3s-1.346-3-3-3-3 1.346-3 3S19.346 45 21 45zM21 41c0.551 0 1 0.449 1 1s-0.449 1-1 1-1-0.449-1-1S20.449 41 21 41z" fill="#000000" data-fill-palette-color="accent"></path>
                <path d="M79 42h2c0.552 0 1-0.448 1-1s-0.448-1-1-1h-2c-0.552 0-1 0.448-1 1S78.448 42 79 42z" fill="#000000" data-fill-palette-color="accent"></path>
            </g>
        </svg>
    </g>
</svg>