<svg xmlns="http://www.w3.org/2000/svg"
    xmlns:xlink="http://www.w3.org/1999/xlink"
    xmlns:svgjs="http://svgjs.dev/svgjs" version="1.1" viewBox="0 0 1000 1000">
    <rect width="1000" height="1000" fill="#ffffff"></rect>
    <g transform="matrix(0.7,0,0,0.7,149.57575757575762,282.1265587044535)">
        <svg xmlns="http://www.w3.org/2000/svg"
            xmlns:xlink="http://www.w3.org/1999/xlink" viewBox="0 0 396 247" data-background-color="#ffffff" preserveAspectRatio="xMidYMid meet" height="623" width="1000">
            <g id="tight-bounds" transform="matrix(1,0,0,1,0.2400000000000091,-0.09999999999999432)">
                <svg viewBox="0 0 395.52 247.2" height="247.2" width="395.52">
                    <g>
                        <svg></svg>
                    </g>
                    <g>
                        <svg viewBox="0 0 395.52 247.2" height="247.2" width="395.52">
                            <g transform="matrix(1,0,0,1,75.54432,90.32948959565067)">
                                <svg viewBox="0 0 244.43135999999998 66.54102080869866" height="66.54102080869866" width="244.43135999999998">
                                    <g>
                                        <svg viewBox="0 0 414.8453438541116 112.93245129343546" height="66.54102080869866" width="244.43135999999998">
                                            <g>
                                                <rect width="3.104015150676163" height="112.93245129343546" x="159.18427459171772" y="0" fill="#000000" opacity="1" stroke-width="0" stroke="transparent" fill-opacity="1" class="rect-o-0" data-fill-palette-color="primary" rx="1%" id="o-0" data-palette-color="#1c4b82"></rect>
                                            </g>
                                            <g transform="matrix(1,0,0,1,170.4139838541116,0.2809264957548052)">
                                                <svg viewBox="0 0 244.43136 112.37059830192585" height="112.37059830192585" width="244.43136">
                                                    <g id="textblocktransform">
                                                        <svg viewBox="0 0 244.43136 112.37059830192585" height="112.37059830192585" width="244.43136" id="textblock">
                                                            <g>
                                                                <svg viewBox="0 0 244.43136 112.37059830192585" height="112.37059830192585" width="244.43136">
                                                                    <g transform="matrix(1,0,0,1,0,0)">
                                                                        <svg width="244.43136" viewBox="2.59999942779541 -33.5 241.4499969482422 108" height="112.37059830192585" data-palette-color="#1c4b82">
                                                                            <svg></svg>
                                                                            <svg></svg>
                                                                            <svg></svg>
                                                                            <g class="undefined-text-0" data-fill-palette-color="primary" id="text-0">
                                                                                <path xmlns="http://www.w3.org/2000/svg" d="M13.4 0.5v0c-2.133 0-3.99-0.21-5.57-0.63-1.587-0.413-3.163-1.02-4.73-1.82v0l-0.5-8.35h0.9l3.05 5.75c2.067 1.7 4.233 2.55 6.5 2.55v0c1.867 0 3.367-0.46 4.5-1.38 1.133-0.913 1.7-2.22 1.7-3.92v0c0-1.267-0.29-2.293-0.87-3.08-0.587-0.78-1.48-1.497-2.68-2.15-1.2-0.647-2.767-1.403-4.7-2.27v0c-2.333-1.133-4.133-2.36-5.4-3.68-1.267-1.313-1.9-3.087-1.9-5.32v0c0-1.267 0.317-2.483 0.95-3.65 0.633-1.167 1.477-2.2 2.53-3.1 1.047-0.9 2.23-1.617 3.55-2.15 1.313-0.533 2.67-0.8 4.07-0.8v0c1.667 0 3.227 0.19 4.68 0.57 1.447 0.387 2.837 0.93 4.17 1.63v0l0.5 8h-0.85l-3.05-5.5c-0.967-0.733-1.867-1.283-2.7-1.65-0.833-0.367-1.783-0.55-2.85-0.55v0c-1.4 0-2.557 0.467-3.47 1.4-0.92 0.933-1.38 2.117-1.38 3.55v0c0 1.5 0.5 2.707 1.5 3.62 1 0.92 2.667 1.93 5 3.03v0c2.033 0.933 3.7 1.85 5 2.75 1.3 0.9 2.267 1.917 2.9 3.05 0.633 1.133 0.95 2.533 0.95 4.2v0c0 1.6-0.34 3.007-1.02 4.22-0.687 1.22-1.603 2.253-2.75 3.1-1.153 0.853-2.43 1.497-3.83 1.93-1.4 0.433-2.8 0.65-4.2 0.65zM39.8 0h-10.8v-0.8l3.1-1.7 12.95-30.75h3.5l12.8 30.65 3.4 1.8v0.8h-14.4v-0.8l4.35-1.75-3.55-8.7h-12l-3.5 8.7 4.15 1.75zM45.15-25.95l-4.85 11.95h9.7zM81.5 0h-13.1v-0.8l4.15-2.05v-27.25l-4.1-2.1v-0.8h8.6l19.3 22.8v-20.05l-5.4-1.95v-0.8h13v0.8l-4.1 2v30.45h-2.6l-21.2-24.9v21.85l5.45 2zM124.75 0h-15.75v-0.8l4.2-2.05v-27.3l-4.2-2.05v-0.8h16.1c3.833 0 7.093 0.65 9.78 1.95 2.68 1.3 4.73 3.083 6.15 5.35 1.413 2.267 2.12 4.833 2.12 7.7v0c0 2.6-0.457 5-1.37 7.2-0.92 2.2-2.203 4.1-3.85 5.7-1.653 1.6-3.603 2.85-5.85 3.75-2.253 0.9-4.697 1.35-7.33 1.35zM123.4-30.25v0h-3.95v27.5h4.7c2.633 0 4.877-0.557 6.73-1.67 1.847-1.12 3.263-2.707 4.25-4.76 0.98-2.047 1.47-4.47 1.47-7.27v0c0-4.2-1.123-7.55-3.37-10.05-2.253-2.5-5.53-3.75-9.83-3.75zM176.1 0h-27.55v-0.8l4.2-2.05v-27.3l-4.2-2.05v-0.8h26.15v8.65h-0.8l-3.45-5.9h-11.45v11.85h8.05l2.7-4.25h0.8v11.15h-0.8l-2.7-4.15h-8.05v12.9h12.7l3.6-7h0.8zM209.55 0h-27.55v-0.8l4.2-2.05v-27.3l-4.2-2.05v-0.8h26.15v8.65h-0.8l-3.45-5.9h-11.45v11.85h8.05l2.7-4.25h0.8v11.15h-0.8l-2.7-4.15h-8.05v12.9h12.7l3.6-7h0.8zM230.8 0h-15.35v-0.8l4.2-2.05v-27.3l-4.2-2.05v-0.8h15.55c3.933 0 7.093 0.707 9.48 2.12 2.38 1.42 3.57 3.68 3.57 6.78v0c0 1.867-0.623 3.507-1.87 4.92-1.253 1.42-2.953 2.53-5.1 3.33-2.153 0.8-4.58 1.2-7.28 1.2v0h-3.9v11.8l4.9 2.05zM228.75-30.25h-2.85v13.05h3.2c2.633 0 4.7-0.61 6.2-1.83 1.5-1.213 2.25-2.753 2.25-4.62v0c0-2.333-0.757-4.017-2.27-5.05-1.52-1.033-3.697-1.55-6.53-1.55z" fill="#000000" fill-rule="nonzero" stroke="none" stroke-width="1" stroke-linecap="butt" stroke-linejoin="miter" stroke-miterlimit="10" stroke-dasharray="" stroke-dashoffset="0" font-family="none" font-weight="none" font-size="none" text-anchor="none" style="mix-blend-mode: normal" data-fill-palette-color="primary" opacity="1"></path>
                                                                                <path xmlns="http://www.w3.org/2000/svg" d="M16.8 37h-14.2v-0.8l4.2-2.05v-27.3l-4.2-2.05v-0.8h15.4c3.5 0 6.26 0.723 8.28 2.17 2.013 1.453 3.02 3.447 3.02 5.98v0c0 1.867-0.623 3.49-1.87 4.87-1.253 1.387-2.897 2.463-4.93 3.23v0l9.35 14.05 3.5 1.9v0.8h-9.35l-9.45-15.25h-3.5v12.35l3.75 2.1zM15.6 6.75v0h-2.55v12.45h2.85c2.067 0 3.743-0.583 5.03-1.75 1.28-1.167 1.92-2.683 1.92-4.55v0c0-1.933-0.633-3.443-1.9-4.53-1.267-1.08-3.05-1.62-5.35-1.62zM65.15 37h-27.55v-0.8l4.2-2.05v-27.3l-4.2-2.05v-0.8h26.15v8.65h-0.8l-3.45-5.9h-11.45v11.85h8.05l2.7-4.25h0.8v11.15h-0.8l-2.7-4.15h-8.05v12.9h12.7l3.6-7h0.8zM86.4 37h-15.35v-0.8l4.2-2.05v-27.3l-4.2-2.05v-0.8h15.55c3.933 0 7.093 0.707 9.48 2.12 2.38 1.42 3.57 3.68 3.57 6.78v0c0 1.867-0.623 3.507-1.87 4.92-1.253 1.42-2.953 2.53-5.1 3.33-2.153 0.8-4.58 1.2-7.28 1.2v0h-3.9v11.8l4.9 2.05zM84.35 6.75h-2.85v13.05h3.2c2.633 0 4.7-0.61 6.2-1.83 1.5-1.213 2.25-2.753 2.25-4.62v0c0-2.333-0.757-4.017-2.27-5.05-1.52-1.033-3.697-1.55-6.53-1.55zM113.75 37h-10.8v-0.8l3.1-1.7 12.95-30.75h3.5l12.8 30.65 3.4 1.8v0.8h-14.4v-0.8l4.35-1.75-3.55-8.7h-12l-3.5 8.7 4.15 1.75zM119.1 11.05l-4.85 11.95h9.7zM157.3 37h-14.6v-0.8l4.15-2.05v-27.3l-4.15-2.05v-0.8h14.6v0.8l-4.15 2.05v27.3l4.15 2.05zM176.9 37h-14.2v-0.8l4.2-2.05v-27.3l-4.2-2.05v-0.8h15.4c3.5 0 6.26 0.723 8.28 2.17 2.013 1.453 3.02 3.447 3.02 5.98v0c0 1.867-0.623 3.49-1.87 4.87-1.253 1.387-2.897 2.463-4.93 3.23v0l9.35 14.05 3.5 1.9v0.8h-9.35l-9.45-15.25h-3.5v12.35l3.75 2.1zM175.7 6.75v0h-2.55v12.45h2.85c2.067 0 3.743-0.583 5.03-1.75 1.28-1.167 1.92-2.683 1.92-4.55v0c0-1.933-0.633-3.443-1.9-4.53-1.267-1.08-3.05-1.62-5.35-1.62z" fill="#000000" fill-rule="nonzero" stroke="none" stroke-width="1" stroke-linecap="butt" stroke-linejoin="miter" stroke-miterlimit="10" stroke-dasharray="" stroke-dashoffset="0" font-family="none" font-weight="none" font-size="none" text-anchor="none" style="mix-blend-mode: normal" data-fill-palette-color="primary" opacity="1"></path>
                                                                                <path xmlns="http://www.w3.org/2000/svg" d="M19.95 74.5v0c-3.467 0-6.473-0.7-9.02-2.1-2.553-1.4-4.53-3.327-5.93-5.78-1.4-2.447-2.1-5.22-2.1-8.32v0c0-2.433 0.483-4.727 1.45-6.88 0.967-2.147 2.283-4.037 3.95-5.67 1.667-1.633 3.567-2.917 5.7-3.85 2.133-0.933 4.383-1.4 6.75-1.4v0c1.7 0 3.143 0.107 4.33 0.32 1.18 0.22 2.23 0.503 3.15 0.85 0.913 0.353 1.837 0.763 2.77 1.23v0l0.45 9.1h-0.9l-4-7c-1.033-0.7-1.967-1.21-2.8-1.53-0.833-0.313-1.8-0.47-2.9-0.47v0c-2.167 0-4.117 0.6-5.85 1.8-1.733 1.2-3.1 2.883-4.1 5.05-1 2.167-1.5 4.667-1.5 7.5v0c0 3.033 0.483 5.633 1.45 7.8 0.967 2.167 2.277 3.833 3.93 5 1.647 1.167 3.487 1.75 5.52 1.75v0c1.5 0 2.793-0.2 3.88-0.6 1.08-0.4 2.087-0.883 3.02-1.45v0l3.85-6.15h0.85l-0.65 8.25c-1.4 0.767-2.99 1.383-4.77 1.85-1.787 0.467-3.963 0.7-6.53 0.7zM66 74h-27.55v-0.8l4.2-2.05v-27.3l-4.2-2.05v-0.8h26.15v8.65h-0.8l-3.45-5.9h-11.45v11.85h8.05l2.7-4.25h0.8v11.15h-0.8l-2.7-4.15h-8.05v12.9h12.7l3.6-7h0.8zM84.85 74h-13.1v-0.8l4.15-2.05v-27.25l-4.1-2.1v-0.8h8.6l19.3 22.8v-20.05l-5.4-1.95v-0.8h13v0.8l-4.1 2v30.45h-2.6l-21.2-24.9v21.85l5.45 2zM135.3 74h-16.65v-0.8l5.2-2.05v-27.4h-7.55l-3.75 7.85h-0.8v-10.6h30.5v10.6h-0.8l-3.75-7.85h-7.55v27.4l5.15 2.05zM174.4 74h-27.55v-0.8l4.2-2.05v-27.3l-4.2-2.05v-0.8h26.15v8.65h-0.8l-3.45-5.9h-11.45v11.85h8.05l2.7-4.25h0.8v11.15h-0.8l-2.7-4.15h-8.05v12.9h12.7l3.6-7h0.8zM194.5 74h-14.2v-0.8l4.2-2.05v-27.3l-4.2-2.05v-0.8h15.4c3.5 0 6.257 0.723 8.27 2.17 2.02 1.453 3.03 3.447 3.03 5.98v0c0 1.867-0.623 3.49-1.87 4.87-1.253 1.387-2.897 2.463-4.93 3.23v0l9.35 14.05 3.5 1.9v0.8h-9.35l-9.45-15.25h-3.5v12.35l3.75 2.1zM193.3 43.75v0h-2.55v12.45h2.85c2.067 0 3.743-0.583 5.03-1.75 1.28-1.167 1.92-2.683 1.92-4.55v0c0-1.933-0.633-3.443-1.9-4.53-1.267-1.08-3.05-1.62-5.35-1.62z" fill="#000000" fill-rule="nonzero" stroke="none" stroke-width="1" stroke-linecap="butt" stroke-linejoin="miter" stroke-miterlimit="10" stroke-dasharray="" stroke-dashoffset="0" font-family="none" font-weight="none" font-size="none" text-anchor="none" style="mix-blend-mode: normal" data-fill-palette-color="primary" opacity="1"></path>
                                                                            </g>
                                                                        </svg>
                                                                    </g>
                                                                </svg>
                                                            </g>
                                                        </svg>
                                                    </g>
                                                </svg>
                                            </g>
                                            <g transform="matrix(1,0,0,1,0,28.14274180671773)">
                                                <svg viewBox="0 0 151.05858048000002 56.64696768" height="56.64696768" width="151.05858048000002">
                                                    <g>
                                                        <svg xmlns="http://www.w3.org/2000/svg"
                                                            xmlns:xlink="http://www.w3.org/1999/xlink" version="1.1" x="0" y="0" viewBox="10 35 80 30" style="enable-background:new 0 0 100 100;" xml:space="preserve" height="56.64696768" width="151.05858048000002" class="icon-icon-0" data-fill-palette-color="accent" id="icon-0">
                                                            <g fill="#1c4b82" data-fill-palette-color="accent">
                                                                <path d="M84 35H16c-3.309 0-6 2.691-6 6v18c0 3.309 2.691 6 6 6h3 64 1c3.309 0 6-2.691 6-6V41C90 37.691 87.309 35 84 35zM82 63H20v-3h62V63zM88 59c0 2.206-1.794 4-4 4v-4c0-0.552-0.448-1-1-1H19c-0.552 0-1 0.448-1 1v4h-2c-2.206 0-4-1.794-4-4V41c0-2.206 1.794-4 4-4h68c2.206 0 4 1.794 4 4V59z" fill="#000000" data-fill-palette-color="accent"></path>
                                                                <path d="M83 50H19c-0.552 0-1 0.448-1 1v5c0 0.552 0.448 1 1 1h64c0.552 0 1-0.448 1-1v-5C84 50.448 83.552 50 83 50zM82 55H20v-3h62V55z" fill="#000000" data-fill-palette-color="accent"></path>
                                                                <path d="M21 45c1.654 0 3-1.346 3-3s-1.346-3-3-3-3 1.346-3 3S19.346 45 21 45zM21 41c0.551 0 1 0.449 1 1s-0.449 1-1 1-1-0.449-1-1S20.449 41 21 41z" fill="#000000" data-fill-palette-color="accent"></path>
                                                                <path d="M79 42h2c0.552 0 1-0.448 1-1s-0.448-1-1-1h-2c-0.552 0-1 0.448-1 1S78.448 42 79 42z" fill="#000000" data-fill-palette-color="accent"></path>
                                                            </g>
                                                        </svg>
                                                    </g>
                                                </svg>
                                            </g>
                                        </svg>
                                    </g>
                                </svg>
                            </g>
                            <g>
                                <path d="M0 123.6c0-68.262 55.338-123.6 123.6-123.6 55.863 0 103.07 37.06 118.377 87.936h-0.956c-15.277-50.363-62.068-87.021-117.421-87.022-67.757 0-122.686 54.928-122.686 122.686 0 67.757 54.928 122.686 122.686 122.686 55.353 0 102.144-36.658 117.421-87.022l0.956 0c-15.306 50.875-62.514 87.936-118.377 87.936-68.262 0-123.6-55.338-123.6-123.6z" fill="#000000" stroke="transparent" data-fill-palette-color="tertiary"></path>
                            </g>
                        </svg>
                    </g>
                    <defs></defs>
                </svg>
                <rect width="395.52" height="247.2" fill="none" stroke="none" visibility="hidden"></rect>
            </g>
        </svg>
    </g>
</svg>